#N canvas 827 239 527 327 12;
#X obj 176 418 hv.osc~ saw;
#X obj 176 479 *~;
#X obj 176 221 sig~;
#X obj 176 104 loadbang;
#X obj 176 813 outlet~;
#X msg 175 175 \$1;
#X obj 176 712 hv.filter~ lowpass;
#X obj 223 589 loadbang;
#X msg 223 641 2000;
#X obj 463 275 line~;
#X obj 463 813 outlet~;
#X obj 462 125 change;
#X obj 462 154 sel 0 1;
#X obj 241 286 *~;
#X obj 176 375 +~;
#X obj 323 263 line~;
#X obj 241 311 *~ 0.5;
#X msg 323 230 0 700;
#X msg 385 230 1 1200;
#X obj 241 230 osc~ 5;
#X msg 463 237 0 500;
#X msg 525 237 1 200;
#X obj 559 480 noise~;
#X obj 559 588 bp~, f 9;
#X obj 476 626 *~;
#X obj 579 521 t f b;
#X msg 602 556 5;
#X msg 476 511 0 100;
#X obj 476 443 t b b;
#X obj 476 406 bng 25 250 50 0 empty empty empty 17 7 0 10 #191919 #ffffff #ffffff;
#X obj 476 553 line~;
#X obj 476 588 *~;
#X obj 476 480 del 20;
#X msg 526 511 1.5 10;
#X obj 176 133 \$2;
#X obj 462 27 r touch_ch\$1 @hv_param;
#X obj 176 770 *~ 0.2;
#X msg 272 641 0.606;
#X obj 462 89 tgl 25 0 empty empty empty 17 7 0 10 #191919 #ffffff #ffffff 0 1;
#X connect 0 0 1 0;
#X connect 1 0 6 0;
#X connect 2 0 14 0;
#X connect 3 0 34 0;
#X connect 5 0 2 0;
#X connect 5 0 25 0;
#X connect 6 0 36 0;
#X connect 7 0 8 0;
#X connect 7 0 37 0;
#X connect 8 0 6 1;
#X connect 9 0 1 1;
#X connect 9 0 10 0;
#X connect 11 0 12 0;
#X connect 12 0 20 0;
#X connect 12 0 17 0;
#X connect 12 1 21 0;
#X connect 12 1 18 0;
#X connect 12 1 29 0;
#X connect 13 0 16 0;
#X connect 14 0 0 0;
#X connect 15 0 13 1;
#X connect 16 0 14 1;
#X connect 17 0 15 0;
#X connect 18 0 15 0;
#X connect 19 0 13 0;
#X connect 20 0 9 0;
#X connect 21 0 9 0;
#X connect 22 0 23 0;
#X connect 23 0 24 1;
#X connect 24 0 6 0;
#X connect 25 0 23 1;
#X connect 25 1 26 0;
#X connect 26 0 23 2;
#X connect 27 0 30 0;
#X connect 28 0 32 0;
#X connect 28 1 33 0;
#X connect 29 0 28 0;
#X connect 30 0 31 0;
#X connect 30 0 31 1;
#X connect 31 0 24 0;
#X connect 32 0 27 0;
#X connect 33 0 30 0;
#X connect 34 0 5 0;
#X connect 35 0 38 0;
#X connect 36 0 4 0;
#X connect 37 0 6 2;
#X connect 38 0 11 0;
#X coords 0 0 1 1 108 48 1 461 72;
