#N canvas 550 337 763 580 10;
#X obj 291 496 dac~;
#X obj 257 235 dattone 0 138.59;
#X obj 257 375 dattone 1 207.65;
#X obj 120 302 dattone 2 246.94;
#X obj 389 302 dattone 3 277.18;
#X obj 92 177 dattone 4 311.13;
#X obj 421 177 dattone 5 329.63;
#X obj 185 68 dattone 6 369.99;
#X obj 342 68 dattone 7 415.3;
#X connect 1 0 0 0;
#X connect 1 0 0 1;
#X connect 2 0 0 0;
#X connect 2 0 0 1;
#X connect 3 0 0 0;
#X connect 4 0 0 1;
#X connect 5 0 0 0;
#X connect 6 0 0 1;
#X connect 7 0 0 0;
#X connect 8 0 0 1;
